<?xml version="1.0" encoding="UTF-8" standalone="no"?>
<svg
   height="48"
   width="48"
   version="1.1"
   id="svg44"
   sodipodi:docname="poi.svg"
   inkscape:version="1.2.2 (b0a8486541, 2022-12-01)"
   xmlns:inkscape="http://www.inkscape.org/namespaces/inkscape"
   xmlns:sodipodi="http://sodipodi.sourceforge.net/DTD/sodipodi-0.dtd"
   xmlns="http://www.w3.org/2000/svg"
   xmlns:svg="http://www.w3.org/2000/svg">
  <defs
     id="defs48" />
  <sodipodi:namedview
     id="namedview46"
     pagecolor="#ffffff"
     bordercolor="#000000"
     borderopacity="0.25"
     inkscape:showpageshadow="2"
     inkscape:pageopacity="0.0"
     inkscape:pagecheckerboard="0"
     inkscape:deskcolor="#d1d1d1"
     showgrid="false"
     inkscape:zoom="13.536403"
     inkscape:cx="9.7884202"
     inkscape:cy="13.592976"
     inkscape:window-width="1920"
     inkscape:window-height="1011"
     inkscape:window-x="0"
     inkscape:window-y="0"
     inkscape:window-maximized="1"
     inkscape:current-layer="svg44" />
  <path
     d="M 24,44 C 18.633333,39.433333 14.625,35.191667 11.975,31.275 9.325,27.358333 8,23.733333 8,20.4 8,15.4 9.6083333,11.416667 12.825,8.45 16.041667,5.4833333 19.766667,4 24,4 28.233333,4 31.958333,5.4833333 35.175,8.45 38.391667,11.416667 40,15.4 40,20.4 40,23.733333 38.675,27.358333 36.025,31.275 33.375,35.191667 29.366667,39.433333 24,44 Z"
     id="path42"
     sodipodi:nodetypes="csssssssc"
     fill="#d73534"
     style="fill: #cc8100;" />
  <circle
     cx="24"
     cy="20"
     r="12"
     fill="#ff4646"
     style="fill: #f29900;"
     id="circle305" />
  <path
     d="M 21.544584,23.441711 24,22.01615 26.455415,23.458482 25.785756,20.758303 27.949269,18.91346 25.098927,18.678662 24,16.129426 l -1.098928,2.549236 -2.850343,0.218027 2.163514,1.828072 z M 19.12351,26.745656 20.411316,21.311755 16.084289,17.655613 21.784974,17.186017 24,12.054 l 2.215025,5.132017 5.700686,0.469596 -4.327028,3.656142 1.304977,5.433901 L 24,23.844221 Z M 24,19.95328 Z"
     id="path307"
     style="fill:#ffe0aa;fill-opacity:1;stroke-width:0.339397" />
</svg>
